<svg width="300" height="100" style="isolation:isolate">
  <defs>
    <clipPath id="a">
      <path d="M0 0h300v100H0z"/>
    </clipPath>
  </defs>
  <g fill="#526984" clip-path="url(#a)">
    <path d="M122.559 83.35H76.074v-66.7h46.485v14.014H93.262v12.305h25.439v14.062H93.262v12.207h29.297V83.35zm60.888 0h-46.484v-66.7h46.484v14.014H154.15v12.305h25.44v14.062h-25.44v12.207h29.297V83.35zm31.592 0h-17.187v-66.7h17.187l27.1 39.991V16.65h17.236v66.7h-16.992l-27.344-39.698V83.35zm77.051 0h-18.311V65.784h18.311V83.35zM7.91 48.145V83.35h17.188V61.035h7.129L44.629 83.35h19.189L47.705 58.447q6.104-2.002 9.766-7.104 3.662-5.103 3.662-13.013 0-10.303-7.349-15.991-7.348-5.689-19.555-5.689H7.91v14.014h27.393q3.515 0 6.054 2.441 2.539 2.442 2.539 6.348 0 3.809-2.539 6.25-2.539 2.442-6.054 2.442H7.91z"/>
  </g>
</svg>
